<?xml version="1.0" standalone="no"?>
<!DOCTYPE svg PUBLIC "-//W3C//DTD SVG 20010904//EN"
 "http://www.w3.org/TR/2001/REC-SVG-20010904/DTD/svg10.dtd">
<svg version="1.0" xmlns="http://www.w3.org/2000/svg"
 width="1020.000000pt" height="1020.000000pt" viewBox="0 0 1020.000000 1020.000000"
 preserveAspectRatio="xMidYMid meet">

<g transform="translate(0.000000,1020.000000) scale(0.100000,-0.100000)"
fill="#000000" stroke="none">
<path d="M4695 6210 c-242 -242 -443 -440 -448 -440 -4 0 -6 96 -5 213 l3 212
41 3 c37 3 51 13 162 122 l122 120 -755 0 -755 0 0 -752 0 -753 130 130 130
130 2 500 3 500 403 3 402 2 0 -272 0 -272 53 52 c29 29 56 52 60 52 4 0 7
-61 7 -135 0 -127 1 -135 19 -135 11 0 32 -10 47 -23 21 -18 28 -35 32 -76 l5
-53 -162 3 -161 3 0 52 c0 58 16 80 68 90 l32 7 0 73 c0 55 -3 72 -12 68 -7
-2 -64 -56 -127 -118 -105 -105 -116 -113 -138 -103 -49 22 -107 -39 -84 -89
8 -18 4 -26 -22 -51 -18 -17 -47 -36 -66 -43 -24 -10 -39 -25 -52 -54 -12 -29
-118 -141 -344 -366 l-327 -325 333 -3 333 -2 55 55 c48 48 138 111 146 103 2
-2 -8 -25 -21 -52 -14 -30 -20 -54 -15 -59 5 -5 32 -10 61 -10 52 -2 53 -1
106 57 58 63 63 60 38 -23 -8 -29 -14 -55 -12 -56 5 -5 158 -9 162 -4 9 10 36
102 36 124 0 13 5 27 10 30 6 3 10 -4 10 -18 0 -23 10 -61 31 -117 9 -24 13
-25 77 -22 37 2 70 7 74 10 3 4 1 34 -7 67 -7 33 -13 49 -14 36 -1 -20 -3 -22
-16 -11 -13 11 -14 10 -9 -3 3 -8 12 -18 20 -21 16 -6 19 -26 3 -26 -5 0 -7 5
-4 10 3 6 2 10 -2 10 -11 0 -36 -41 -29 -48 3 -3 6 0 6 8 0 10 4 10 17 -1 14
-12 16 -12 9 0 -6 9 -5 12 4 9 29 -9 22 -28 -10 -26 -32 2 -52 24 -34 37 13 9
16 54 4 46 -6 -4 -7 2 -1 17 4 13 7 31 5 41 -2 14 2 16 18 11 13 -4 19 -2 16
6 -2 6 -8 10 -13 8 -14 -4 -23 614 -10 625 6 4 18 5 28 3 9 -2 17 0 17 5 0 5
-11 9 -25 9 -14 0 -25 5 -25 10 0 6 9 10 19 10 20 0 54 -29 115 -100 21 -25
33 -36 25 -25 -7 11 -24 33 -38 48 l-25 28 357 357 357 357 0 320 0 319 48
-44 47 -45 -50 53 c-27 28 -49 52 -50 52 0 0 -198 -198 -440 -440z m-799 -837
c10 -37 -4 -73 -33 -84 -34 -13 -37 -7 -12 25 15 19 19 34 14 54 -4 22 -2 29
10 29 8 0 18 -11 21 -24z m-46 9 c0 -5 -11 -19 -24 -31 -20 -18 -24 -20 -29
-7 -4 9 1 22 9 31 16 16 44 20 44 7z m-44 -208 c12 -29 12 -39 0 -69 -18 -41
-62 -67 -76 -44 -6 9 -5 15 3 18 40 12 60 65 38 100 -11 17 -3 43 11 35 6 -4
16 -22 24 -40z"/>
<path d="M5240 6536 c0 -2 8 -10 18 -17 15 -13 16 -12 3 4 -13 16 -21 21 -21
13z"/>
<path d="M5365 6410 c21 -22 41 -40 44 -40 3 0 -13 18 -34 40 -21 22 -41 40
-44 40 -3 0 13 -18 34 -40z"/>
<path d="M5845 6320 l120 -120 502 0 503 0 0 -498 0 -497 130 -130 130 -130 0
748 0 747 -752 0 -753 0 120 -120z"/>
<path d="M5435 6340 c10 -11 20 -20 23 -20 3 0 -3 9 -13 20 -10 11 -20 20 -23
20 -3 0 3 -9 13 -20z"/>
<path d="M5200 5936 c0 -2 8 -10 18 -17 15 -13 16 -12 3 4 -13 16 -21 21 -21
13z"/>
<path d="M5280 5856 c0 -2 8 -10 18 -17 15 -13 16 -12 3 4 -13 16 -21 21 -21
13z"/>
<path d="M3395 5676 c-13 -13 -27 -36 -31 -51 -9 -38 18 -90 57 -111 65 -33
139 18 139 96 0 77 -110 121 -165 66z m107 -33 c24 -21 23 -58 -2 -83 -26 -26
-46 -25 -75 5 -29 28 -31 42 -9 73 18 26 60 29 86 5z"/>
<path d="M3685 5688 c-55 -32 -76 -92 -52 -151 30 -71 121 -89 182 -36 19 17
35 36 35 41 0 6 -9 -1 -21 -16 -22 -28 -57 -51 -66 -43 -3 3 10 20 29 37 l33
32 -33 -26 c-43 -34 -67 -33 -103 3 -34 35 -37 68 -8 105 27 34 82 36 117 4
l25 -23 -19 29 -18 29 22 -12 c13 -7 27 -22 32 -34 6 -16 9 -17 9 -6 1 10 -15
31 -34 48 -38 33 -91 41 -130 19z"/>
<path d="M5440 5696 c0 -2 8 -10 18 -17 15 -13 16 -12 3 4 -13 16 -21 21 -21
13z"/>
<path d="M3821 5584 c0 -11 3 -14 6 -6 3 7 2 16 -1 19 -3 4 -6 -2 -5 -13z"/>
<path d="M3570 5437 c-57 -29 -61 -101 -8 -140 75 -56 168 47 106 117 -28 31
-65 40 -98 23z m74 -46 c22 -25 13 -58 -20 -73 -19 -9 -28 -8 -44 7 -22 20
-26 55 -8 73 18 18 53 14 72 -7z"/>
<path d="M6355 5430 c10 -11 20 -20 23 -20 3 0 -3 9 -13 20 -10 11 -20 20 -23
20 -3 0 3 -9 13 -20z"/>
<path d="M6445 5340 c10 -11 20 -20 23 -20 3 0 -3 9 -13 20 -10 11 -20 20 -23
20 -3 0 3 -9 13 -20z"/>
<path d="M5800 5336 c0 -2 8 -10 18 -17 15 -13 16 -12 3 4 -13 16 -21 21 -21
13z"/>
<path d="M4330 5249 c0 -5 5 -7 10 -4 6 3 10 8 10 11 0 2 -4 4 -10 4 -5 0 -10
-5 -10 -11z"/>
<path d="M4840 5099 l0 -130 128 3 127 3 3 128 3 127 -131 0 -130 0 0 -131z"/>
<path d="M5210 5100 l0 -131 128 3 127 3 3 128 3 127 -131 0 -130 0 0 -130z"/>
<path d="M6600 5186 c0 -2 8 -10 18 -17 15 -13 16 -12 3 4 -13 16 -21 21 -21
13z"/>
<path d="M4506 5167 c3 -10 9 -15 12 -12 3 3 0 11 -7 18 -10 9 -11 8 -5 -6z"/>
<path d="M4530 5115 c0 -5 5 -17 10 -25 5 -8 10 -10 10 -5 0 6 -5 17 -10 25
-5 8 -10 11 -10 5z"/>
<path d="M4557 5025 c3 -22 7 -42 9 -44 8 -9 2 45 -6 64 -7 14 -8 8 -3 -20z"/>
<path d="M6100 5036 c0 -2 8 -10 18 -17 15 -13 16 -12 3 4 -13 16 -21 21 -21
13z"/>
<path d="M6205 4930 c10 -11 20 -20 23 -20 3 0 -3 9 -13 20 -10 11 -20 20 -23
20 -3 0 3 -9 13 -20z"/>
<path d="M6260 4876 c0 -2 8 -10 18 -17 15 -13 16 -12 3 4 -13 16 -21 21 -21
13z"/>
<path d="M4571 4850 c0 -8 4 -24 9 -35 5 -13 9 -14 9 -5 0 8 -4 24 -9 35 -5
13 -9 14 -9 5z"/>
<path d="M4840 4733 l0 -128 130 3 130 3 0 125 0 124 -130 0 -130 0 0 -127z"/>
<path d="M5210 4733 l0 -128 130 3 130 3 0 125 0 124 -130 0 -130 0 0 -127z"/>
<path d="M6365 4770 c10 -11 20 -20 23 -20 3 0 -3 9 -13 20 -10 11 -20 20 -23
20 -3 0 3 -9 13 -20z"/>
<path d="M6470 4667 c0 -2 15 -16 33 -33 l32 -29 -29 33 c-28 30 -36 37 -36
29z"/>
<path d="M4373 4649 c-7 -7 -4 -18 11 -36 45 -55 85 -93 98 -93 7 0 4 5 -7 12
-40 22 -102 108 -88 122 4 3 4 6 2 6 -3 0 -10 -5 -16 -11z"/>
<path d="M4550 4601 c0 -6 4 -13 10 -16 6 -3 7 1 4 9 -7 18 -14 21 -14 7z"/>
<path d="M4638 4598 c5 -5 16 -8 23 -6 8 3 3 7 -10 11 -17 4 -21 3 -13 -5z"/>
<path d="M4580 4542 c0 -7 -10 -13 -22 -13 -19 -1 -20 -2 -4 -6 20 -5 44 12
33 24 -4 3 -7 1 -7 -5z"/>
<path d="M7290 4505 c13 -14 26 -25 28 -25 3 0 -5 11 -18 25 -13 14 -26 25
-28 25 -3 0 5 -11 18 -25z"/>
<path d="M1395 4292 c-102 -36 -178 -105 -231 -210 -26 -52 -29 -66 -28 -162
0 -92 3 -112 26 -163 75 -161 256 -259 424 -228 64 12 146 47 184 79 l25 21
-46 46 -46 47 -38 -26 c-130 -89 -307 -39 -379 106 -60 119 -20 259 96 338 39
27 60 34 116 38 76 5 122 -6 176 -43 l35 -24 42 50 c48 58 50 56 -60 111 -56
28 -76 33 -155 35 -67 2 -104 -2 -141 -15z"/>
<path d="M2190 4038 c0 -300 -3 -318 -63 -362 -38 -28 -116 -29 -146 -2 -21
19 -22 19 -67 -27 -25 -26 -42 -52 -39 -57 4 -6 30 -22 58 -37 64 -33 150 -36
219 -10 55 21 130 97 147 149 7 23 12 137 14 326 l2 292 -62 0 -63 0 0 -272z"/>
<path d="M3975 4301 c-11 -5 16 -6 60 -4 104 6 119 11 30 12 -38 0 -79 -4 -90
-8z"/>
<path d="M4500 3915 l0 -395 230 0 230 0 0 65 0 65 -165 0 -165 0 -2 318 c-1
174 -4 275 -5 223 -3 -61 -9 -101 -18 -115 -11 -14 -15 -16 -15 -6 0 12 -2 12
-9 2 -7 -11 -11 -11 -24 2 -14 14 -16 14 -23 -2 -11 -26 -23 47 -23 145 -1 56
3 83 12 86 7 3 5 6 -5 6 -17 1 -18 -24 -18 -394z"/>
<path d="M4545 4305 c23 -8 85 -10 85 -3 0 4 -21 8 -47 7 -27 0 -43 -2 -38 -4z"/>
<path d="M5130 3915 l0 -395 241 2 241 3 2 63 1 62 -182 0 -183 0 0 100 0 100
155 0 155 0 0 65 0 65 -155 0 -155 0 -2 108 -1 107 -6 -77 c-7 -74 -21 -120
-21 -65 0 14 -4 29 -10 32 -5 3 -10 2 -10 -3 0 -5 -11 -7 -24 -5 -30 6 -36 26
-36 135 l0 88 238 3 237 2 -242 3 -243 2 0 -395z"/>
<path d="M6610 3917 l0 -397 66 0 66 0 -4 240 c-2 132 -1 240 2 240 7 0 141
-129 338 -324 l152 -151 -2 370 c-1 204 -4 331 -5 283 -4 -83 -5 -88 -27 -94
-13 -3 -35 -4 -47 -2 -23 3 -24 6 -27 110 l-3 107 43 4 43 4 -47 1 -48 2 -2
-239 -3 -239 -93 89 c-52 49 -98 87 -103 84 -5 -4 -7 0 -5 7 1 7 -64 78 -146
158 l-148 144 0 -397z m193 179 c-3 -6 -3 -8 2 -4 9 9 35 -9 35 -23 0 -5 -5
-9 -11 -9 -5 0 -8 4 -5 9 7 10 -13 9 -31 -2 -6 -4 -14 -3 -17 2 -9 14 -136 13
-136 -1 0 -6 -3 -9 -6 -5 -3 3 -8 56 -11 119 l-5 113 95 -94 c53 -52 93 -99
90 -105z"/>
<path d="M7215 4300 c3 -5 8 -10 11 -10 2 0 4 5 4 10 0 6 -5 10 -11 10 -5 0
-7 -4 -4 -10z"/>
<path d="M7400 3915 l0 -395 65 0 65 0 -2 383 c-1 210 -4 336 -5 281 l-4 -101
-36 -6 c-24 -4 -40 -2 -45 6 -6 9 -8 8 -8 -3 -1 -12 -3 -11 -11 3 -6 10 -9 62
-7 122 2 58 0 105 -4 105 -5 0 -8 -178 -8 -395z"/>
<path d="M7453 4303 c15 -2 39 -2 55 0 15 2 2 4 -28 4 -30 0 -43 -2 -27 -4z"/>
<path d="M8248 4303 l63 -4 -3 -107 c-3 -95 -5 -107 -20 -106 -10 1 -18 -3
-18 -10 0 -6 -5 -4 -10 4 -8 12 -10 11 -10 -7 l0 -23 -20 20 c-11 11 -20 27
-20 35 0 8 -4 15 -10 15 -5 0 -11 -59 -12 -144 l-3 -145 -180 176 c-240 235
-333 321 -211 197 54 -56 94 -104 90 -106 -5 -3 -3 -3 5 -1 11 3 12 1 1 -12
-13 -16 -12 -17 19 -19 11 0 23 -5 28 -9 4 -5 3 -8 -2 -7 -6 1 -12 1 -15 0
-18 -7 -39 -7 -35 0 3 4 -3 14 -12 21 -18 15 -123 20 -123 5 0 -4 -7 -6 -15
-2 -8 3 -16 0 -17 -7 -1 -7 -5 26 -8 73 -3 47 -7 -71 -8 -268 l-2 -353 61 3
62 3 -2 238 c-1 130 1 237 6 237 5 0 73 -66 153 -146 80 -80 189 -186 243
-236 l97 -90 0 391 0 391 -67 -2 -68 -2 63 -3z m-393 -244 c-4 -5 -1 -9 4 -9
6 0 11 -5 11 -12 0 -9 -3 -9 -12 0 -14 14 -20 44 -7 36 5 -3 7 -10 4 -15z"/>
<path d="M8843 4303 c20 -2 54 -2 75 0 20 2 3 4 -38 4 -41 0 -58 -2 -37 -4z"/>
<path d="M2480 3910 l0 -390 65 0 65 0 0 178 0 177 113 -172 c61 -95 115 -172
119 -172 3 -1 54 73 113 164 59 91 111 165 116 165 5 0 9 -76 9 -170 l0 -170
60 0 60 0 0 387 c0 246 -3 384 -10 377 -5 -5 -83 -121 -174 -259 -90 -137
-168 -251 -172 -252 -5 -2 -87 116 -183 262 -96 146 -176 265 -178 265 -1 0
-3 -175 -3 -390z"/>
<path d="M4148 4293 c7 -3 16 -2 19 1 4 3 -2 6 -13 5 -11 0 -14 -3 -6 -6z"/>
<path d="M6119 4274 c-5 -15 -7 -29 -5 -32 3 -2 8 7 12 22 3 14 11 23 17 19 6
-3 7 -1 3 5 -11 18 -15 15 -27 -14z"/>
<path d="M3916 4281 c-4 -5 3 -7 14 -4 23 6 26 13 6 13 -8 0 -17 -4 -20 -9z"/>
<path d="M4180 4286 c0 -2 9 -6 20 -9 11 -3 18 -1 14 4 -5 9 -34 13 -34 5z"/>
<path d="M8730 4280 c-8 -5 -10 -10 -5 -10 6 0 17 5 25 10 8 5 11 10 5 10 -5
0 -17 -5 -25 -10z"/>
<path d="M3834 4233 c-51 -38 -77 -65 -96 -98 -6 -11 9 2 33 29 24 27 64 62
88 78 25 15 40 28 34 28 -6 0 -33 -16 -59 -37z"/>
<path d="M4240 4266 c0 -3 9 -10 20 -16 11 -6 20 -8 20 -6 0 3 -9 10 -20 16
-11 6 -20 8 -20 6z"/>
<path d="M8665 4244 l-30 -26 35 23 c45 29 45 29 34 29 -5 0 -22 -12 -39 -26z"/>
<path d="M9050 4266 c0 -2 7 -7 16 -10 8 -3 12 -2 9 4 -6 10 -25 14 -25 6z"/>
<path d="M6156 4247 c3 -10 9 -15 12 -12 3 3 0 11 -7 18 -10 9 -11 8 -5 -6z"/>
<path d="M7701 4244 c0 -11 3 -14 6 -6 3 7 2 16 -1 19 -3 4 -6 -2 -5 -13z"/>
<path d="M4302 4225 c17 -18 17 -21 -18 -56 l-36 -37 -55 29 c-30 16 -62 29
-72 29 -9 -1 6 -10 33 -20 27 -11 59 -28 71 -40 l21 -20 24 27 c12 16 31 37
42 49 18 20 18 21 -4 39 -23 19 -23 19 -6 0z"/>
<path d="M9127 4219 c10 -13 6 -22 -26 -53 l-38 -37 -36 21 c-21 12 -37 20
-37 17 0 -3 17 -15 37 -27 l36 -21 44 44 c42 41 43 44 26 58 -16 12 -17 12 -6
-2z"/>
<path d="M6171 4218 c-1 -12 31 -89 35 -85 3 2 -4 24 -15 48 -11 24 -20 41
-20 37z"/>
<path d="M8587 4180 c-71 -83 -102 -177 -95 -292 5 -93 39 -169 108 -242 133
-140 342 -162 503 -52 l62 42 3 172 2 172 -145 0 -145 0 0 -65 0 -65 85 0 86
0 -3 -72 -3 -73 -45 -25 c-37 -21 -58 -25 -120 -25 -87 0 -132 20 -192 82 -51
52 -71 104 -71 184 0 100 43 174 139 237 11 7 6 6 -11 -2 -17 -8 -46 -30 -65
-49 -24 -25 -39 -33 -49 -27 -8 4 -25 3 -39 -3 -18 -8 -25 -8 -31 2 -6 10 -10
9 -14 -4 -5 -11 -3 -14 6 -9 6 4 9 4 5 -1 -4 -4 -2 -15 5 -23 11 -13 9 -14
-10 -1 -13 8 -23 18 -23 22 0 15 33 69 68 115 42 53 35 55 -11 2z"/>
<path d="M4053 4193 c9 -2 23 -2 30 0 6 3 -1 5 -18 5 -16 0 -22 -2 -12 -5z"/>
<path d="M5342 4193 c48 -2 129 -2 180 0 51 1 12 3 -87 3 -99 0 -141 -2 -93
-3z"/>
<path d="M3961 4175 c-18 -8 -38 -12 -44 -8 -5 3 -7 1 -4 -4 4 -6 -6 -19 -21
-29 -15 -9 -33 -26 -41 -37 -11 -15 -15 -16 -22 -6 -7 11 -9 11 -9 -2 0 -31
13 -27 55 15 25 26 63 52 96 64 30 12 47 21 39 21 -8 0 -30 -6 -49 -14z"/>
<path d="M8795 4180 c-13 -5 -14 -9 -5 -9 8 0 24 4 35 9 13 5 14 9 5 9 -8 0
-24 -4 -35 -9z"/>
<path d="M8928 4183 c7 -3 16 -2 19 1 4 3 -2 6 -13 5 -11 0 -14 -3 -6 -6z"/>
<path d="M6039 4078 c-23 -57 -82 -195 -129 -308 -118 -279 -114 -250 -36
-250 l66 0 32 70 31 71 136 -3 135 -3 27 -65 28 -65 69 -3 70 -3 -59 143 c-33
79 -66 157 -73 173 -8 17 -35 82 -61 145 -57 139 -65 155 -63 118 1 -15 7 -24
13 -21 5 3 5 0 -2 -7 -15 -16 -34 -4 -26 18 3 11 -1 8 -12 -6 -11 -15 -21 -20
-28 -14 -25 20 -76 19 -95 -1 -16 -20 -16 -20 3 -13 15 5 17 4 8 -5 -15 -15
-38 -2 -24 15 6 7 8 16 4 19 -3 4 -1 7 5 7 7 0 12 9 12 21 0 11 5 29 11 41 6
11 9 22 6 24 -2 3 -24 -42 -48 -98z m66 -47 c3 -5 2 -12 -3 -15 -5 -3 -9 1 -9
9 0 17 3 19 12 6z m77 -154 c21 -50 38 -93 38 -94 0 -2 -36 -3 -80 -3 -44 0
-80 4 -80 9 0 17 74 191 79 186 2 -3 22 -47 43 -98z"/>
<path d="M3706 4081 c-9 -16 -20 -60 -26 -98 -35 -222 102 -413 324 -454 96
-17 233 18 306 79 l25 21 -45 45 -45 46 -38 -26 c-162 -110 -393 5 -405 202
-3 41 1 79 12 110 21 61 7 77 -30 38 -17 -19 -23 -22 -17 -9 6 11 8 26 5 34
-3 8 0 11 7 7 17 -11 13 3 -6 22 -16 16 -16 16 -10 0 3 -10 2 -18 -4 -18 -6 0
-19 -10 -29 -22 l-17 -22 1 22 c0 13 7 27 15 31 9 6 10 11 2 15 -5 4 -17 -7
-25 -23z"/>
<path d="M6160 4090 c0 -5 5 -10 11 -10 5 0 7 5 4 10 -3 6 -8 10 -11 10 -2 0
-4 -4 -4 -10z"/>
</g>
</svg>
